<svg width="69" height="60" viewBox="0 0 69 60" fill="none" xmlns="http://www.w3.org/2000/svg">
<g clip-path="url(#clip0_954_38432)">
<path d="M0.583252 2.8125C0.583252 1.25391 1.83716 0 3.39575 0H8.72778C11.3059 0 13.5911 1.5 14.6575 3.75H62.8215C65.9036 3.75 68.1536 6.67969 67.345 9.65625L62.5403 27.5039C61.5442 31.1836 58.2043 33.75 54.3958 33.75H20.5872L21.22 37.0898C21.4778 38.4141 22.6379 39.375 23.9856 39.375H57.7708C59.3293 39.375 60.5833 40.6289 60.5833 42.1875C60.5833 43.7461 59.3293 45 57.7708 45H23.9856C19.9309 45 16.4504 42.1172 15.7004 38.1445L9.65356 6.38672C9.57153 5.94141 9.18481 5.625 8.72778 5.625H3.39575C1.83716 5.625 0.583252 4.37109 0.583252 2.8125ZM15.5833 54.375C15.5833 53.6363 15.7287 52.9049 16.0114 52.2224C16.2941 51.5399 16.7084 50.9199 17.2308 50.3975C17.7531 49.8752 18.3732 49.4609 19.0557 49.1782C19.7381 48.8955 20.4696 48.75 21.2083 48.75C21.9469 48.75 22.6784 48.8955 23.3608 49.1782C24.0433 49.4609 24.6634 49.8752 25.1857 50.3975C25.7081 50.9199 26.1224 51.5399 26.4051 52.2224C26.6878 52.9049 26.8333 53.6363 26.8333 54.375C26.8333 55.1137 26.6878 55.8451 26.4051 56.5276C26.1224 57.2101 25.7081 57.8301 25.1857 58.3525C24.6634 58.8748 24.0433 59.2891 23.3608 59.5718C22.6784 59.8545 21.9469 60 21.2083 60C20.4696 60 19.7381 59.8545 19.0557 59.5718C18.3732 59.2891 17.7531 58.8748 17.2308 58.3525C16.7084 57.8301 16.2941 57.2101 16.0114 56.5276C15.7287 55.8451 15.5833 55.1137 15.5833 54.375ZM54.9583 48.75C56.4501 48.75 57.8808 49.3426 58.9357 50.3975C59.9906 51.4524 60.5833 52.8832 60.5833 54.375C60.5833 55.8668 59.9906 57.2976 58.9357 58.3525C57.8808 59.4074 56.4501 60 54.9583 60C53.4664 60 52.0357 59.4074 50.9808 58.3525C49.9259 57.2976 49.3333 55.8668 49.3333 54.375C49.3333 52.8832 49.9259 51.4524 50.9808 50.3975C52.0357 49.3426 53.4664 48.75 54.9583 48.75Z" fill="#00969F"/>
</g>
<defs>
<clipPath id="clip0_954_38432">
<rect width="67.5" height="60" fill="white" transform="translate(0.583252)"/>
</clipPath>
</defs>
</svg>
