<svg width="24" height="20" viewBox="0 0 24 20" fill="none" xmlns="http://www.w3.org/2000/svg">
<path d="M20.9287 2.80428L20.0625 1.94178C19.71 1.58928 19.71 1.01928 20.0625 0.670533C20.415 0.321783 20.985 0.318033 21.3337 0.670533L23.7337 3.07053C23.9025 3.23928 23.9963 3.46803 23.9963 3.70803C23.9963 3.94803 23.9025 4.17678 23.7337 4.34553L21.3337 6.74553C20.9812 7.09803 20.4112 7.09803 20.0625 6.74553C19.7137 6.39303 19.71 5.82303 20.0625 5.47428L20.925 4.61178H18.5025H6V5.21178C6 6.53553 4.92375 7.61178 3.6 7.61178H3V11.118L1.90125 12.2055L1.2 12.9105V5.20428C1.2 3.88053 2.27625 2.80428 3.6 2.80428H14.385H14.4H20.9287ZM21 12.4043V8.89803L22.0987 7.79928L22.8 7.09803V14.8043C22.8 16.128 21.7237 17.2043 20.4 17.2043H5.49375H3.07125L3.93375 18.0668C4.28625 18.4193 4.28625 18.9893 3.93375 19.338C3.58125 19.6868 3.01125 19.6905 2.6625 19.338L0.2625 16.9418C0.09375 16.773 0 16.5443 0 16.3043C0 16.0643 0.09375 15.8355 0.2625 15.6668L2.6625 13.2668C3.015 12.9143 3.585 12.9143 3.93375 13.2668C4.2825 13.6193 4.28625 14.1893 3.93375 14.538L3.07125 15.4005L9.6 15.4043C9.60375 15.4043 9.61125 15.4043 9.615 15.4043H18V14.8043C18 13.4805 19.0762 12.4043 20.4 12.4043H21ZM12 6.40428C12.9548 6.40428 13.8705 6.78357 14.5456 7.4587C15.2207 8.13383 15.6 9.0495 15.6 10.0043C15.6 10.9591 15.2207 11.8747 14.5456 12.5499C13.8705 13.225 12.9548 13.6043 12 13.6043C11.0452 13.6043 10.1295 13.225 9.45442 12.5499C8.77928 11.8747 8.4 10.9591 8.4 10.0043C8.4 9.0495 8.77928 8.13383 9.45442 7.4587C10.1295 6.78357 11.0452 6.40428 12 6.40428Z" fill="#00969F"/>
</svg>
