<svg width="24" height="25" viewBox="0 0 24 25" fill="none" xmlns="http://www.w3.org/2000/svg">
<path d="M12 2.25464C14.5859 2.25464 17.0658 3.28187 18.8943 5.11035C20.7228 6.93883 21.75 9.41878 21.75 12.0046C21.75 14.5905 20.7228 17.0704 18.8943 18.8989C17.0658 20.7274 14.5859 21.7546 12 21.7546C9.41414 21.7546 6.93419 20.7274 5.10571 18.8989C3.27723 17.0704 2.25 14.5905 2.25 12.0046C2.25 9.41878 3.27723 6.93883 5.10571 5.11035C6.93419 3.28187 9.41414 2.25464 12 2.25464ZM12 24.0046C15.1826 24.0046 18.2348 22.7404 20.4853 20.4899C22.7357 18.2395 24 15.1872 24 12.0046C24 8.82204 22.7357 5.76979 20.4853 3.51936C18.2348 1.26892 15.1826 0.00463867 12 0.00463867C8.8174 0.00463867 5.76516 1.26892 3.51472 3.51936C1.26428 5.76979 0 8.82204 0 12.0046C0 15.1872 1.26428 18.2395 3.51472 20.4899C5.76516 22.7404 8.8174 24.0046 12 24.0046ZM10.125 15.7546C9.50156 15.7546 9 16.2562 9 16.8796C9 17.5031 9.50156 18.0046 10.125 18.0046H13.875C14.4984 18.0046 15 17.5031 15 16.8796C15 16.2562 14.4984 15.7546 13.875 15.7546H13.5V11.6296C13.5 11.0062 12.9984 10.5046 12.375 10.5046H10.125C9.50156 10.5046 9 11.0062 9 11.6296C9 12.2531 9.50156 12.7546 10.125 12.7546H11.25V15.7546H10.125ZM12 9.00464C12.3978 9.00464 12.7794 8.8466 13.0607 8.5653C13.342 8.28399 13.5 7.90246 13.5 7.50464C13.5 7.10681 13.342 6.72528 13.0607 6.44398C12.7794 6.16267 12.3978 6.00464 12 6.00464C11.6022 6.00464 11.2206 6.16267 10.9393 6.44398C10.658 6.72528 10.5 7.10681 10.5 7.50464C10.5 7.90246 10.658 8.28399 10.9393 8.5653C11.2206 8.8466 11.6022 9.00464 12 9.00464Z" fill="#FF6900"/>
</svg>
