<svg width="22" height="25" viewBox="0 0 22 25" fill="none" xmlns="http://www.w3.org/2000/svg">
<path d="M7.625 1.625C7.625 1.00156 7.12344 0.5 6.5 0.5C5.87656 0.5 5.375 1.00156 5.375 1.625V3.5H3.5C1.84531 3.5 0.5 4.84531 0.5 6.5V7.25V9.5V21.5C0.5 23.1547 1.84531 24.5 3.5 24.5H18.5C20.1547 24.5 21.5 23.1547 21.5 21.5V9.5V7.25V6.5C21.5 4.84531 20.1547 3.5 18.5 3.5H16.625V1.625C16.625 1.00156 16.1234 0.5 15.5 0.5C14.8766 0.5 14.375 1.00156 14.375 1.625V3.5H7.625V1.625ZM2.75 9.5H19.25V21.5C19.25 21.9125 18.9125 22.25 18.5 22.25H3.5C3.0875 22.25 2.75 21.9125 2.75 21.5V9.5Z" fill="#00969F"/>
</svg>
