<svg width="25" height="25" viewBox="0 0 25 25" fill="none" xmlns="http://www.w3.org/2000/svg">
<path d="M22.45 12.5C22.45 9.91414 21.4227 7.43419 19.5942 5.60571C17.7658 3.77723 15.2858 2.75 12.7 2.75C10.1141 2.75 7.63414 3.77723 5.80566 5.60571C3.97718 7.43419 2.94995 9.91414 2.94995 12.5C2.94995 15.0859 3.97718 17.5658 5.80566 19.3943C7.63414 21.2228 10.1141 22.25 12.7 22.25C15.2858 22.25 17.7658 21.2228 19.5942 19.3943C21.4227 17.5658 22.45 15.0859 22.45 12.5ZM0.699951 12.5C0.699951 9.3174 1.96423 6.26516 4.21467 4.01472C6.46511 1.76428 9.51735 0.5 12.7 0.5C15.8825 0.5 18.9348 1.76428 21.1852 4.01472C23.4357 6.26516 24.7 9.3174 24.7 12.5C24.7 15.6826 23.4357 18.7348 21.1852 20.9853C18.9348 23.2357 15.8825 24.5 12.7 24.5C9.51735 24.5 6.46511 23.2357 4.21467 20.9853C1.96423 18.7348 0.699951 15.6826 0.699951 12.5ZM13.675 6.7625V7.42813C14.1296 7.48438 14.5843 7.61094 15.0343 7.7375C15.1234 7.76094 15.2078 7.78437 15.2968 7.8125C15.8359 7.9625 16.1546 8.52031 16.0046 9.05938C15.8546 9.59844 15.2968 9.9125 14.7578 9.76719C14.6875 9.74844 14.6125 9.725 14.5375 9.70625C14.2093 9.6125 13.8812 9.52344 13.5484 9.45781C12.9296 9.34063 12.2125 9.39688 11.6359 9.64531C11.1203 9.87031 10.6937 10.4141 11.2796 10.7891C11.739 11.0844 12.3015 11.2344 12.8359 11.3797C12.9484 11.4078 13.0562 11.4406 13.164 11.4688C13.8953 11.675 14.8281 11.9422 15.5265 12.4203C16.4359 13.0438 16.8625 14.0562 16.6609 15.1437C16.4687 16.1937 15.7375 16.8828 14.8609 17.2391C14.4953 17.3891 14.0968 17.4828 13.6796 17.5297V18.2422C13.6796 18.8 13.225 19.2547 12.6671 19.2547C12.1093 19.2547 11.6546 18.8 11.6546 18.2422V17.4266C10.975 17.2719 10.3093 17.0563 9.64839 16.8406C9.1187 16.6672 8.82808 16.0906 9.0062 15.5609C9.18433 15.0312 9.7562 14.7406 10.2859 14.9188C10.4031 14.9563 10.5203 14.9984 10.6375 15.0359C11.1671 15.2141 11.7109 15.3969 12.2546 15.4859C13.0515 15.6031 13.689 15.5328 14.1062 15.3641C14.6687 15.1391 14.9359 14.4688 14.3828 14.0938C13.9093 13.7703 13.3234 13.6109 12.7656 13.4609C12.6578 13.4328 12.5546 13.4047 12.4468 13.3719C11.739 13.1703 10.8531 12.9219 10.1875 12.4953C9.27339 11.9094 8.80933 10.9344 9.0062 9.85156C9.1937 8.82969 9.99058 8.15 10.8343 7.78437C11.0921 7.67187 11.3687 7.58281 11.6546 7.51719V6.7625C11.6546 6.20469 12.1093 5.75 12.6671 5.75C13.225 5.75 13.6796 6.20469 13.6796 6.7625H13.675Z" fill="#00969F"/>
</svg>
