<svg width="18" height="24" viewBox="0 0 18 24" fill="none" xmlns="http://www.w3.org/2000/svg">
<path d="M3.75 2.25C3.3375 2.25 3 2.5875 3 3V21C3 21.4125 3.3375 21.75 3.75 21.75H14.25C14.6625 21.75 15 21.4125 15 21V3C15 2.5875 14.6625 2.25 14.25 2.25H3.75ZM0.75 3C0.75 1.34531 2.09531 0 3.75 0H14.25C15.9047 0 17.25 1.34531 17.25 3V21C17.25 22.6547 15.9047 24 14.25 24H3.75C2.09531 24 0.75 22.6547 0.75 21V3ZM7.5 18.75H10.5C10.9125 18.75 11.25 19.0875 11.25 19.5C11.25 19.9125 10.9125 20.25 10.5 20.25H7.5C7.0875 20.25 6.75 19.9125 6.75 19.5C6.75 19.0875 7.0875 18.75 7.5 18.75Z" fill="#00969F"/>
</svg>
