<svg width="65" height="56" viewBox="0 0 65 56" fill="none" xmlns="http://www.w3.org/2000/svg">
<path d="M0.5 8C0.5 3.5875 4.0875 0 8.5 0H56.5C60.9125 0 64.5 3.5875 64.5 8V48C64.5 52.4125 60.9125 56 56.5 56H8.5C4.0875 56 0.5 52.4125 0.5 48V8ZM40.975 21.3125C40.4125 20.4875 39.4875 20 38.5 20C37.5125 20 36.575 20.4875 36.025 21.3125L25.15 37.2625L21.8375 33.125C21.2625 32.4125 20.4 32 19.5 32C18.6 32 17.725 32.4125 17.1625 33.125L9.1625 43.125C8.4375 44.025 8.3 45.2625 8.8 46.3C9.3 47.3375 10.35 48 11.5 48H23.5H27.5H53.5C54.6125 48 55.6375 47.3875 56.15 46.4C56.6625 45.4125 56.6 44.225 55.975 43.3125L40.975 21.3125ZM14.5 20C16.0913 20 17.6174 19.3679 18.7426 18.2426C19.8679 17.1174 20.5 15.5913 20.5 14C20.5 12.4087 19.8679 10.8826 18.7426 9.75736C17.6174 8.63214 16.0913 8 14.5 8C12.9087 8 11.3826 8.63214 10.2574 9.75736C9.13214 10.8826 8.5 12.4087 8.5 14C8.5 15.5913 9.13214 17.1174 10.2574 18.2426C11.3826 19.3679 12.9087 20 14.5 20Z" fill="#5B5B5B"/>
</svg>
