<svg width="24" height="25" viewBox="0 0 24 25" fill="none" xmlns="http://www.w3.org/2000/svg">
<path d="M15.7591 3.86213L15.7029 3.4637C15.5622 2.47463 14.7841 1.69651 13.795 1.55588L13.3966 1.49963C12.9888 1.44338 12.7029 1.05901 12.7591 0.651197C12.8154 0.243384 13.195 -0.0472408 13.6075 0.0136967L14.006 0.0699467C15.656 0.304322 16.9544 1.60276 17.1888 3.25276L17.245 3.6512C17.3013 4.05901 17.02 4.44338 16.6075 4.49963C16.195 4.55588 15.8154 4.27463 15.7591 3.86213ZM3.74973 3.22463C4.5888 2.38557 5.80286 2.14651 6.85286 2.51213C6.99817 2.19338 7.19973 1.89807 7.46223 1.63557C8.63411 0.463697 10.5325 0.463697 11.7044 1.63557L17.2497 7.1762V6.93245C17.2497 5.27776 18.595 3.93245 20.2497 3.93245C21.9044 3.93245 23.2497 5.27776 23.2497 6.93245V14.3293C23.2497 14.4043 23.2497 14.4746 23.245 14.5496C23.245 14.5778 23.2497 14.6012 23.2497 14.6293C23.2497 19.7809 19.0919 23.9668 13.945 24.0043H13.9216H13.8747H13.5654C11.081 24.0043 8.69505 23.0153 6.93723 21.2574L1.6263 15.9512C0.454421 14.7793 0.454421 12.8809 1.6263 11.709C1.80911 11.5262 2.01067 11.3715 2.22161 11.2449L2.15598 11.1793C0.984109 10.0074 0.984109 8.10901 2.15598 6.93713C2.41848 6.67463 2.7138 6.47307 3.03255 6.32776C2.67161 5.27776 2.91067 4.0637 3.74973 3.22463ZM7.46692 5.88245L7.46223 5.87776L6.40286 4.81838C6.11223 4.52776 5.63411 4.52776 5.34348 4.81838C5.05286 5.10901 5.05286 5.58713 5.34348 5.87776L6.39817 6.93245L6.40286 6.93713L10.9075 11.4418C11.3482 11.8824 11.3482 12.5949 10.9075 13.0309C10.4669 13.4668 9.75442 13.4715 9.31848 13.0309L4.8138 8.5262L4.80911 8.52151C4.51848 8.23088 4.04036 8.23088 3.74973 8.52151C3.45911 8.81213 3.45911 9.29026 3.74973 9.58088L5.6013 11.4418L5.60598 11.4465L8.25911 14.0996C8.69973 14.5403 8.69973 15.2528 8.25911 15.6887C7.81848 16.1246 7.10598 16.1293 6.67005 15.6887L4.28411 13.3028L4.27942 13.2981C3.9888 13.0074 3.51067 13.0074 3.22005 13.2981C2.92942 13.5887 2.92942 14.0668 3.22005 14.3574L8.5263 19.6684C9.86223 21.0043 11.6763 21.7543 13.5654 21.7543H13.8747H13.9029H13.9122C17.7935 21.7309 20.9388 18.609 20.995 14.7324C20.9904 14.6856 20.9904 14.634 20.9904 14.5871C20.995 14.5028 20.995 14.4184 20.995 14.3293V6.93713C20.995 6.52463 20.6575 6.18713 20.245 6.18713C19.8325 6.18713 19.495 6.52463 19.495 6.93713V9.89495C19.495 10.3496 19.2232 10.7621 18.8013 10.9356C18.3794 11.109 17.8966 11.0153 17.5732 10.6918L10.1154 3.22463C9.82473 2.93401 9.34661 2.93401 9.05598 3.22463C8.76536 3.51526 8.76536 3.9887 9.0513 4.28401L13.5607 8.79338C14.0013 9.23401 14.0013 9.94651 13.5607 10.3824C13.12 10.8184 12.4075 10.8231 11.9716 10.3824L7.46692 5.87776V5.88245ZM0.641921 17.2637C1.04973 17.2074 1.43411 17.4887 1.49036 17.9012L1.54661 18.2996C1.68723 19.2887 2.46536 20.0668 3.45442 20.2074L3.85286 20.2637C4.26067 20.3246 4.54661 20.7043 4.49036 21.1121C4.43411 21.5199 4.04973 21.8059 3.64192 21.7496L3.24348 21.6934C1.59348 21.459 0.295046 20.1606 0.060671 18.5106L0.00910854 18.1121C-0.0471415 17.7043 0.234109 17.3199 0.646609 17.2637H0.641921Z" fill="#00969F"/>
</svg>
