<svg width="18" height="22" viewBox="0 0 18 22" fill="none" xmlns="http://www.w3.org/2000/svg">
<path d="M9 2.86714L15.6891 9.8937C15.7266 9.9312 15.75 9.98745 15.75 10.0437C15.75 10.1609 15.6562 10.2593 15.5344 10.2593H11.625C11.0016 10.2593 10.5 10.7609 10.5 11.3843V19.2546H7.5V11.3796C7.5 10.7562 6.99844 10.2546 6.375 10.2546H2.46562C2.34844 10.2546 2.25 10.1609 2.25 10.039C2.25 9.98276 2.27344 9.9312 2.31094 9.88901L9 2.86714ZM18 10.039C18 9.4062 17.7563 8.79683 17.3203 8.33745L10.4484 1.12339C10.0687 0.729639 9.54844 0.504639 9 0.504639C8.45156 0.504639 7.93125 0.729639 7.55156 1.12339L0.679688 8.34214C0.24375 8.79683 0 9.4062 0 10.039C0 11.3984 1.10156 12.5046 2.46562 12.5046H5.25V19.2546C5.25 20.4968 6.25781 21.5046 7.5 21.5046H10.5C11.7422 21.5046 12.75 20.4968 12.75 19.2546V12.5046H15.5344C16.8937 12.5046 18 11.4031 18 10.039Z" fill="#00969F"/>
</svg>
